# xmcd
#
# Track frame offsets: 
#        150
#        18454
#        35276
#        49628
#        65155
#        81702
#        96986
#        116762
#        134571
#        151129
#        168078
#        183185
#        205027
#        224237
#        234000
#
# Disc length: 3443 seconds
#
# Revision: 0
# Processed by: cddbd v1.5.1PL0 Copyright (c) Steve Scherf et al.
# Submitted via: ExactAudioCopy v0.95a5
#
DISCID=d10d710f
DTITLE=Jonny lang - Long Time Coming
DYEAR=2003
DGENRE=Blues
TTITLE0=Give Me Up Again
TTITLE1=Red Light
TTITLE2=Get What You Give
TTITLE3=The One I Got
TTITLE4=Touch
TTITLE5=Beautiful One
TTITLE6=If We Try
TTITLE7=Goodbye Letter
TTITLE8=Save Yourself
TTITLE9=To Love Again
TTITLE10=Happiness And Misery
TTITLE11=Hide Your Love
TTITLE12=Dying To Live
TTITLE13=Long Time Coming
TTITLE14=Livin' For The City (Live)
EXTD=
EXTT0=
EXTT1=
EXTT2=
EXTT3=
EXTT4=
EXTT5=
EXTT6=
EXTT7=
EXTT8=
EXTT9=
EXTT10=
EXTT11=
EXTT12=
EXTT13=
EXTT14=
PLAYORDER=
